#!OML:ASF X:\für Bonn\!DataBase\2005_08_10_Bjorn_Final\c3d\bjorn.ASF
:FULLY-SPECIFIED
:DEGREES
51
root -1.38447 19.1789 16.3576 -360.861 -180.498 360.003
lowerback 13.4636 -2.44141 -2.54992
upperback 17.2492 0.852516 -1.09762
thorax 11.3812 1.86992 0.520014
lowerneck -0.975976 -5.04718 2.35349
upperneck 16.5941 -6.52768 3.07115
head 5.18111 -2.52189 0.28883
rclavicle -5.1684e-015 -1.09332e-014
rhumerus -201.301 -156.677 98.0499
rradius 37.3008
rwrist 11.501
rhand -11.8694 10.795
rfingers 7.12502
rthumb 14.1829 -18.7008
lclavicle -5.1684e-015 -1.09332e-014
lhumerus -374.084 -0.412314 -279.814
lradius 29.8716
lwrist -13.978
lhand -21.6573 -4.63008
lfingers 7.12502
lthumb 4.73964 25.2969
rfemur -16.7737 1.4899 10.1455
rtibia 33.1028
rfoot -9.87535 20.1876
rtoes 6.48844
lfemur -10.9558 5.08071 -13.0425
ltibia 26.2237
lfoot -8.1521 3.55213
ltoes -15.9832
52
root -1.4351 19.1806 16.3824 -360.983 -181.176 359.933
lowerback 13.8952 -2.53051 -2.57594
upperback 17.3716 0.763103 -1.00991
thorax 11.2926 1.83457 0.630522
lowerneck -1.19692 -5.16811 2.28192
upperneck 16.7145 -6.71604 3.08513
head 5.25991 -2.61683 0.288223
rclavicle 3.77691e-015 -2.98177e-015
rhumerus -200.962 -156.757 98.1742
rradius 37.1477
rwrist 11.6139
rhand -11.5131 10.6924
rfingers 7.12502
rthumb 14.5262 -18.7791
lclavicle 3.77691e-015 -2.98177e-015
lhumerus -374.104 -0.618727 -279.709
lradius 30.4349
lwrist -13.403
lhand -22.2905 -4.91387
lfingers 7.12502
lthumb 4.12828 25.0259
rfemur -16.8622 0.963594 10.0331
rtibia 33.272
rfoot -10.5093 19.4454
rtoes 5.56456
lfemur -10.7748 5.38014 -13.2447
ltibia 26.2438
lfoot -8.22138 3.86522
ltoes -15.7377
53
root -1.48437 19.1819 16.4073 -361.115 -181.803 359.826
lowerback 14.3205 -2.63787 -2.63254
upperback 17.5123 0.659028 -0.937276
thorax 11.2343 1.79271 0.744536
lowerneck -1.3822 -5.28452 2.25455
upperneck 16.8014 -6.89322 3.06046
head 5.31956 -2.70778 0.269933
rclavicle 1.98785e-015 -3.18055e-015
rhumerus -200.604 -156.839 98.2728
rradius 36.9799
rwrist 11.7707
rhand -11.2076 10.6151
rfingers 7.12502
rthumb 14.8205 -18.835
lclavicle 1.98785e-015 -3.18055e-015
lhumerus -374.082 -0.925328 -279.635
lradius 30.9929
lwrist -12.7792
lhand -22.8616 -5.0274
lfingers 7.12502
lthumb 3.57672 24.9223
rfemur -16.9208 0.41057 9.87987
rtibia 33.4388
rfoot -11.2236 18.7019
rtoes 3.89784
lfemur -10.6054 5.61846 -13.4864
ltibia 26.2764
lfoot -8.3368 4.17241
ltoes -15.3769
54
root -1.53227 19.1816 16.4336 -361.261 -182.379 359.737
lowerback 14.7641 -2.76202 -2.62917
upperback 17.6731 0.551296 -0.877604
thorax 11.1914 1.76207 0.813564
lowerneck -1.52843 -5.40994 2.27387
upperneck 16.8348 -7.08385 3.03685
head 5.35457 -2.80505 0.245049
rclavicle -7.95139e-015 7.35503e-015
rhumerus -200.278 -156.899 98.3389
rradius 36.8965
rwrist 11.8273
rhand -10.8953 10.5455
rfingers 7.12502
rthumb 15.1213 -18.8821
lclavicle -7.95139e-015 7.35503e-015
lhumerus -374.006 -1.25592 -279.611
lradius 31.5228
lwrist -12.272
lhand -23.2498 -5.01477
lfingers 7.12502
lthumb 3.2019 24.9409
rfemur -16.957 -0.121305 9.73919
rtibia 33.6114
rfoot -11.8047 18.0494
rtoes 2.6747
lfemur -10.4531 5.84467 -13.7007
ltibia 26.3329
lfoot -8.43398 4.45512
ltoes -15.0364
55
root -1.58014 19.1803 16.4616 -361.399 -182.943 359.648
lowerback 15.2252 -2.86522 -2.58405
upperback 17.8314 0.474432 -0.776962
thorax 11.1347 1.74911 0.903376
lowerneck -1.64387 -5.58214 2.14565
upperneck 16.8901 -7.33539 3.09403
head 5.39987 -2.9344 0.266091
rclavicle -7.15625e-015 -8.44835e-015
rhumerus -199.994 -156.917 98.5058
rradius 36.8639
rwrist 11.9058
rhand -10.615 10.4349
rfingers 7.12502
rthumb 15.3913 -18.9722
lclavicle -7.15625e-015 -8.44835e-015
lhumerus -373.93 -1.76085 -279.52
lradius 32.0684
lwrist -11.7354
lhand -23.6153 -5.0556
lfingers 7.12502
lthumb 2.8489 24.9051
rfemur -17.0179 -0.633498 9.59162
rtibia 33.7992
rfoot -12.3164 17.4572
rtoes 1.6405
lfemur -10.3474 6.05949 -13.9148
ltibia 26.4309
lfoot -8.52911 4.74206
ltoes -14.7753
56
root -1.62629 19.1762 16.4906 -361.558 -183.476 359.559
lowerback 15.7189 -2.94445 -2.48808
upperback 17.998 0.44325 -0.644869
thorax 11.0691 1.76649 0.998025
lowerneck -1.72 -5.79868 1.93733
upperneck 16.9321 -7.64448 3.1994
head 5.44028 -3.09403 0.312758
rclavicle -2.5842e-015 -4.96962e-016
rhumerus -199.734 -156.788 98.7595
rradius 36.8042
rwrist 12.0118
rhand -10.3919 10.4006
rfingers 7.12502
rthumb 15.6062 -18.9898
lclavicle -2.5842e-015 -4.96962e-016
lhumerus -373.838 -2.4142 -279.393
lradius 32.6682
lwrist -11.2036
lhand -23.8329 -5.16956
lfingers 7.12502
lthumb 2.63876 24.7939
rfemur -17.0512 -1.13483 9.43569
rtibia 33.9962
rfoot -12.7233 17.0151
rtoes 1.1177
lfemur -10.2518 6.278 -14.1179
ltibia 26.5744
lfoot -8.66752 4.96522
ltoes -14.4004
57
root -1.67258 19.1702 16.5223 -361.711 -183.988 359.471
lowerback 16.2457 -3.05459 -2.3806
upperback 18.1503 0.369479 -0.528279
thorax 10.9703 1.76446 1.07104
lowerneck -1.65981 -5.99201 1.6836
upperneck 16.9071 -7.91921 3.38185
head 5.44229 -3.23731 0.39695
rclavicle -4.02539e-015 -2.08724e-015
rhumerus -199.455 -156.814 98.963
rradius 36.7632
rwrist 12.0011
rhand -10.1851 10.2978
rfingers 7.12502
rthumb 15.8054 -19.0769
lclavicle -4.02539e-015 -2.08724e-015
lhumerus -373.794 -3.06769 -279.334
lradius 33.3079
lwrist -10.5849
lhand -23.9484 -5.31046
lfingers 7.12502
lthumb 2.52722 24.6543
rfemur -17.1043 -1.63482 9.27978
rtibia 34.2033
rfoot -13.0491 16.6514
rtoes 0.87408
lfemur -10.2116 6.54342 -14.3207
ltibia 26.7688
lfoot -8.75732 5.1666
ltoes -14.2023
